<?xml version="1.0" encoding="UTF-8" standalone="no"?>
<!DOCTYPE svg PUBLIC "-//W3C//DTD SVG 1.1//EN" "http://www.w3.org/Graphics/SVG/1.1/DTD/svg11.dtd">
<svg width="100%" height="100%" viewBox="0 0 512 512" version="1.1" xmlns="http://www.w3.org/2000/svg" xmlns:xlink="http://www.w3.org/1999/xlink" xml:space="preserve" xmlns:serif="http://www.serif.com/" style="fill-rule:evenodd;clip-rule:evenodd;stroke-linejoin:round;stroke-miterlimit:2;">
    <g transform="matrix(1,0,0,1,4,-1)">
        <rect x="-11.317" y="-2.12" width="525.751" height="518.974" style="fill:rgb(244,243,243);"/>
        <g id="code" transform="matrix(0.604092,0,0,0.604092,97.3525,102.352)">
            <path d="M481.081,438.5L30.919,438.5C13.843,438.5 0,424.657 0,407.581L0,137.102L512,137.102L512,407.581C512,424.657 498.157,438.5 481.081,438.5Z" style="fill:rgb(169,219,245);fill-rule:nonzero;"/>
            <path d="M481.095,137.102L481.095,438.5C498.164,438.5 512,424.651 512,407.568L512,137.102L481.095,137.102Z" style="fill:rgb(136,195,224);fill-rule:nonzero;"/>
            <g>
                <path d="M103.87,233.967C100.941,231.039 96.192,231.039 93.264,233.967L46.833,280.398C43.904,283.328 43.904,288.076 46.833,291.005L92.649,336.821C94.113,338.285 96.033,339.017 97.952,339.017C99.871,339.017 101.791,338.285 103.255,336.821C106.184,333.891 106.184,329.143 103.255,326.214L62.742,285.701L103.869,244.574C106.799,241.645 106.799,236.896 103.87,233.967Z" style="fill:rgb(67,128,159);fill-rule:nonzero;"/>
                <path d="M264.52,280.397L218.089,233.966C215.16,231.038 210.411,231.038 207.483,233.966C204.554,236.896 204.554,241.644 207.483,244.573L248.61,285.7L208.097,326.213C205.168,329.143 205.168,333.891 208.097,336.82C209.561,338.284 211.481,339.016 213.4,339.016C215.319,339.016 217.239,338.284 218.703,336.82L264.52,291.004C267.448,288.075 267.448,283.327 264.52,280.397Z" style="fill:rgb(67,128,159);fill-rule:nonzero;"/>
                <path d="M185.813,206.063C181.939,204.592 177.61,206.54 176.14,210.414L121.238,355.052C119.768,358.924 121.716,363.255 125.588,364.725C126.464,365.058 127.363,365.215 128.248,365.215C131.273,365.215 134.124,363.371 135.261,360.374L190.163,215.736C191.633,211.864 189.686,207.533 185.813,206.063Z" style="fill:rgb(67,128,159);fill-rule:nonzero;"/>
            </g>
            <path d="M386.318,234.23L337.899,234.23C329.365,234.23 322.446,227.312 322.446,218.777C322.446,210.243 329.364,203.324 337.899,203.324L386.318,203.324C394.852,203.324 401.771,210.242 401.771,218.777C401.771,227.311 394.852,234.23 386.318,234.23Z" style="fill:rgb(41,206,246);fill-rule:nonzero;"/>
            <path d="M465.642,296.041L337.899,296.041C329.365,296.041 322.446,289.123 322.446,280.588C322.446,272.054 329.364,265.135 337.899,265.135L465.641,265.135C474.175,265.135 481.094,272.053 481.094,280.588C481.095,289.122 474.176,296.041 465.642,296.041Z" style="fill:rgb(255,195,40);fill-rule:nonzero;"/>
            <path d="M427.695,357.852L337.899,357.852C329.365,357.852 322.446,350.934 322.446,342.399C322.446,333.865 329.364,326.946 337.899,326.946L427.695,326.946C436.229,326.946 443.148,333.864 443.148,342.399C443.148,350.933 436.229,357.852 427.695,357.852Z" style="fill:rgb(247,142,54);fill-rule:nonzero;"/>
            <path d="M512,147.737L0,147.737L0,104.419C0,87.343 13.843,73.5 30.919,73.5L481.081,73.5C498.157,73.5 512,87.343 512,104.419L512,147.737Z" style="fill:rgb(67,128,159);fill-rule:nonzero;"/>
            <path d="M481.095,73.5L481.095,147.737L512,147.737L512,104.432C512,87.349 498.163,73.5 481.095,73.5Z" style="fill:rgb(58,113,144);fill-rule:nonzero;"/>
            <circle cx="49.455" cy="111.126" r="15.453" style="fill:rgb(41,206,246);"/>
            <circle cx="109.37" cy="111.126" r="15.453" style="fill:rgb(243,243,243);"/>
            <circle cx="169.285" cy="111.126" r="15.453" style="fill:rgb(247,142,54);"/>
        </g>
    </g>
</svg>
