<?xml version="1.0" encoding="UTF-8" standalone="no"?>
<!DOCTYPE svg PUBLIC "-//W3C//DTD SVG 1.1//EN" "http://www.w3.org/Graphics/SVG/1.1/DTD/svg11.dtd">
<svg width="100%" height="100%" viewBox="0 0 512 512" version="1.1" xmlns="http://www.w3.org/2000/svg" xmlns:xlink="http://www.w3.org/1999/xlink" xml:space="preserve" xmlns:serif="http://www.serif.com/" style="fill-rule:evenodd;clip-rule:evenodd;stroke-linejoin:round;stroke-miterlimit:2;">
    <g transform="matrix(0.953962,0,0,0.978573,-0.626272,-0.292207)">
        <rect x="-13.603" y="-13.637" width="566.078" height="549.295" style="fill:rgb(244,243,243);"/>
        <g id="cube" transform="matrix(0.697663,0,0,0.680117,90.409,87.794)">
            <g transform="matrix(1,0,0,1,5,6)">
                <path d="M250.999,261.519C248.736,261.52 246.565,260.621 244.964,259.02C243.364,257.42 242.465,255.249 242.465,252.985L242.465,249.997C242.465,245.284 246.286,241.464 250.998,241.464C255.71,241.464 259.531,245.285 259.531,249.997L259.531,252.985C259.532,255.248 258.633,257.419 257.032,259.02C255.433,260.62 253.262,261.519 250.999,261.519Z" style="fill-rule:nonzero;"/>
                <path d="M447.266,149.049L447.266,350.947L422.22,364.515L256.435,454.115L255.266,454.798L63.266,350.947L63.266,149.049L255.266,45.198L447.266,149.049Z" style="fill:rgb(109,152,247);fill-rule:nonzero;"/>
                <path d="M421.666,166.115L421.666,364.515L281.89,440.206L258.252,453.006L256.119,454.115L255.01,454.798L253.388,453.859L63.266,350.947L63.266,152.547L80.332,143.331L229.922,62.265L421.666,166.115Z" style="fill:rgb(147,178,244);fill-rule:nonzero;"/>
                <path d="M250.999,252.985L250.999,424.163L80.332,333.881L80.332,162.617L250.999,252.985Z" style="fill:rgb(219,224,238);fill-rule:nonzero;"/>
                <path d="M447.266,149.049L421.154,162.873L250.999,252.985L55.244,149.305L54.732,149.049L250.999,45.198L447.266,149.049Z" style="fill:rgb(147,178,244);fill-rule:nonzero;"/>
                <path d="M421.154,162.873L250.76,252.985L54.732,149.305L225.126,59.278L421.154,162.873Z" style="fill:rgb(219,224,238);fill-rule:nonzero;"/>
                <path d="M281.89,440.206L258.252,453.006L253.388,453.859L252.194,454.115L250.999,454.798L54.732,350.947L54.732,149.049L80.332,130.531L80.332,333.881L250.999,424.163L281.89,440.206Z" style="fill:white;fill-rule:nonzero;"/>
            </g>
            <g>
                <g>
                    <path d="M255.999,466.381C253.736,466.382 251.565,465.483 249.964,463.882C248.364,462.282 247.465,460.111 247.465,457.847L247.465,255.997C247.465,251.284 251.286,247.464 255.998,247.464C260.71,247.464 264.531,251.285 264.531,255.997L264.531,457.847C264.532,460.11 263.633,462.281 262.032,463.882C260.433,465.483 258.262,466.382 255.999,466.381Z" style="fill:rgb(53,117,255);fill-rule:nonzero;"/>
                    <path d="M255.999,511.998C254.604,511.998 253.231,511.656 251.999,511.002L21.599,388.835C18.809,387.356 17.064,384.456 17.066,381.297L17.066,130.697C17.065,127.539 18.809,124.639 21.599,123.16L251.999,0.993C254.501,-0.332 257.497,-0.332 259.999,0.993L490.399,123.16C493.189,124.639 494.934,127.539 494.932,130.697L494.932,381.297C494.933,384.455 493.189,387.355 490.399,388.835L259.999,511.002C258.767,511.656 257.394,511.998 255.999,511.998ZM34.132,376.164L255.999,493.806L477.866,376.164L477.866,135.831L255.999,18.19L34.132,135.831L34.132,376.164Z" style="fill:rgb(53,117,255);fill-rule:nonzero;"/>
                    <path d="M255.999,469.331C254.607,469.332 253.237,468.992 252.007,468.339L55.741,364.49C52.948,363.011 51.2,360.109 51.199,356.948L51.199,273.065C51.199,268.352 55.02,264.532 59.732,264.532C64.444,264.532 68.265,268.352 68.265,273.065L68.265,351.811L255.998,451.145L443.731,351.811L443.731,160.186L255.999,60.852L68.266,160.186L68.266,204.798C68.266,209.511 64.445,213.331 59.733,213.331C55.021,213.331 51.2,209.51 51.2,204.798L51.2,155.048C51.201,151.887 52.948,148.985 55.742,147.506L252.009,43.656C254.505,42.331 257.496,42.331 259.992,43.656L456.259,147.506C459.052,148.985 460.8,151.887 460.801,155.048L460.801,356.948C460.8,360.109 459.053,363.011 456.259,364.49L259.991,468.34C258.761,468.992 257.391,469.332 255.999,469.331Z" style="fill:rgb(53,117,255);fill-rule:nonzero;"/>
                    <path d="M255.999,267.481C254.607,267.482 253.237,267.142 252.007,266.489L55.741,162.615C51.589,160.404 50.01,155.25 52.21,151.092C54.411,146.934 59.561,145.342 63.724,147.532L255.999,249.295L448.274,147.532C452.437,145.342 457.588,146.934 459.788,151.092C461.989,155.25 460.409,160.404 456.257,162.615L259.991,266.49C258.761,267.142 257.391,267.482 255.999,267.481Z" style="fill:rgb(53,117,255);fill-rule:nonzero;"/>
                </g>
                <circle cx="59.732" cy="238.931" r="8.533" style="fill:rgb(66,141,255);"/>
            </g>
        </g>
    </g>
</svg>
