<?xml version="1.0" encoding="UTF-8" standalone="no"?>
<!DOCTYPE svg PUBLIC "-//W3C//DTD SVG 1.1//EN" "http://www.w3.org/Graphics/SVG/1.1/DTD/svg11.dtd">
<svg width="100%" height="100%" viewBox="0 0 512 512" version="1.1" xmlns="http://www.w3.org/2000/svg" xmlns:xlink="http://www.w3.org/1999/xlink" xml:space="preserve" xmlns:serif="http://www.serif.com/" style="fill-rule:evenodd;clip-rule:evenodd;stroke-linejoin:round;stroke-miterlimit:2;">
    <g transform="matrix(1.49377,0,0,1.65666,-130.301,-27.1876)">
        <rect x="85.887" y="15.129" width="344.765" height="310.867" style="fill:rgb(244,243,243);"/>
        <g transform="matrix(0.52804,0,0,0.478369,162.969,105.948)">
            <g transform="matrix(4.11638,0,0,4.11638,-214.052,-172.835)">
                <path d="M58,108L72,108L72,74L52,59L52,102C52,105.32 54.69,108 58,108" style="fill:rgb(66,133,244);fill-rule:nonzero;"/>
            </g>
            <g transform="matrix(4.11638,0,0,4.11638,-214.052,-172.835)">
                <path d="M120,108L134,108C137.32,108 140,105.31 140,102L140,59L120,74" style="fill:rgb(52,168,83);fill-rule:nonzero;"/>
            </g>
            <g transform="matrix(4.11638,0,0,4.11638,-214.052,-172.835)">
                <path d="M120,48L120,74L140,59L140,51C140,43.58 131.53,39.35 125.6,43.8" style="fill:rgb(251,188,4);fill-rule:nonzero;"/>
            </g>
            <g transform="matrix(4.11638,0,0,4.11638,-214.052,-172.835)">
                <path d="M72,74L72,48L96,66L120,48L120,74L96,92" style="fill:rgb(234,67,53);fill-rule:nonzero;"/>
            </g>
            <g transform="matrix(4.11638,0,0,4.11638,-214.052,-172.835)">
                <path d="M52,51L52,59L72,74L72,48L66.4,43.8C60.46,39.35 52,43.58 52,51" style="fill:rgb(197,34,31);fill-rule:nonzero;"/>
            </g>
        </g>
    </g>
</svg>
