<?xml version="1.0" encoding="UTF-8" standalone="no"?>
<!DOCTYPE svg PUBLIC "-//W3C//DTD SVG 1.1//EN" "http://www.w3.org/Graphics/SVG/1.1/DTD/svg11.dtd">
<svg width="100%" height="100%" viewBox="0 0 512 512" version="1.1" xmlns="http://www.w3.org/2000/svg" xmlns:xlink="http://www.w3.org/1999/xlink" xml:space="preserve" xmlns:serif="http://www.serif.com/" style="fill-rule:evenodd;clip-rule:evenodd;stroke-linejoin:round;stroke-miterlimit:2;">
    <g transform="matrix(1.49377,0,0,1.65666,-130.301,-27.1876)">
        <rect x="85.887" y="15.129" width="344.765" height="310.867" style="fill:rgb(244,243,243);"/>
        <g id="game" transform="matrix(0.401315,0,0,0.361858,155.871,64.4776)">
            <g>
                <path d="M334.875,182.972C375.071,191.306 414.416,190.257 439.106,182.972L436.016,167.749C432.643,151.081 422.098,136.822 405.09,136.822L368.863,136.822C351.855,136.822 341.31,151.081 337.937,167.749L334.875,182.972Z" style="fill:rgb(54,94,125);"/>
            </g>
            <g>
                <path d="M235.69,205.763L255.278,226.882L276.283,205.763L276.283,187.11C276.283,179.796 270.302,173.815 263.017,173.815L248.985,173.815C241.672,173.815 235.69,179.796 235.69,187.11L235.69,205.763Z" style="fill:rgb(54,94,125);"/>
            </g>
            <g>
                <path d="M177.125,182.972L174.035,167.749C170.662,151.081 160.117,136.822 143.109,136.822L106.91,136.822C89.902,136.822 79.357,151.081 75.984,167.749L72.894,182.972C106.598,183.595 146.312,184.361 177.125,182.972Z" style="fill:rgb(54,94,125);"/>
            </g>
            <g>
                <path d="M15.01,439.375C15.01,509.252 117.625,529.095 148.098,468.261L180.073,404.451C199.406,370.462 197.024,371.965 236.823,371.965L275.147,371.965C314.974,371.965 312.565,370.463 331.926,404.451L363.873,468.261C394.346,529.095 496.99,509.252 496.99,439.375L496.99,277.085C496.99,258.035 491.632,240.233 482.363,225.096C472.158,207.35 457.134,192.723 439.106,182.972C423.572,174.609 405.827,169.847 386.976,169.847C368.125,169.847 350.38,174.609 334.875,182.972C323.876,188.897 314.04,196.636 305.706,205.763L235.69,205.763C190.902,205.763 211.368,201.454 177.126,182.972C161.62,174.609 143.875,169.847 124.996,169.847C106.145,169.847 88.4,174.609 72.895,182.972C54.838,192.724 39.843,207.351 29.638,225.096C20.34,240.234 15.011,258.036 15.011,277.085L15.011,439.375L15.01,439.375Z" style="fill:rgb(249,246,246);"/>
            </g>
            <g>
                <path d="M332.862,300.16C344.116,300.16 353.243,291.032 353.243,279.778C353.243,268.524 344.115,259.396 332.862,259.396C321.609,259.396 312.481,268.524 312.481,279.778C312.481,291.032 321.609,300.16 332.862,300.16Z" style="fill:rgb(167,233,166);"/>
            </g>
            <g>
                <path d="M366.595,333.894C366.595,345.148 375.723,354.276 386.976,354.276C398.23,354.276 407.357,345.148 407.357,333.894C407.357,322.64 398.229,313.512 386.976,313.512C375.723,313.512 366.595,322.64 366.595,333.894Z" style="fill:rgb(255,224,125);"/>
            </g>
            <g>
                <path d="M420.709,279.779C420.709,291.033 429.837,300.161 441.09,300.161C452.343,300.161 461.471,291.033 461.471,279.779C461.471,268.525 452.343,259.397 441.09,259.397C429.837,259.397 420.709,268.525 420.709,279.779Z" style="fill:rgb(34,166,254);"/>
            </g>
            <g>
                <path d="M366.595,225.663C366.595,236.917 375.723,246.045 386.976,246.045C398.23,246.045 407.357,236.917 407.357,225.663C407.357,214.409 398.229,205.281 386.976,205.281C375.723,205.281 366.595,214.409 366.595,225.663Z" style="fill:rgb(235,84,104);"/>
            </g>
            <g>
                <path d="M124.995,354.276C166.155,354.276 199.49,320.911 199.49,279.779C199.49,238.647 166.154,205.282 124.995,205.282C83.864,205.282 50.528,238.647 50.528,279.779C50.528,320.911 83.864,354.276 124.995,354.276ZM160.259,279.779C160.259,299.254 144.47,315.043 124.996,315.043C105.55,315.043 89.761,299.253 89.761,279.779C89.761,260.304 105.55,244.515 124.996,244.515C144.47,244.514 160.259,260.304 160.259,279.779Z" style="fill:rgb(54,94,125);"/>
            </g>
            <g>
                <path d="M124.995,315.043C144.469,315.043 160.258,299.253 160.258,279.779C160.258,260.304 144.469,244.515 124.995,244.515C105.549,244.515 89.76,260.305 89.76,279.779C89.76,299.253 105.549,315.043 124.995,315.043Z" style="fill:rgb(249,246,246);"/>
            </g>
            <g>
                <path d="M399.251,499.897C440.807,515.375 496.991,491.081 496.991,439.375L496.991,277.085C496.991,258.035 491.633,240.233 482.364,225.096C472.159,207.35 457.135,192.723 439.107,182.972C423.573,174.609 405.828,169.847 386.977,169.847C379.834,169.847 372.86,170.527 366.114,171.831C379.21,175.233 391.371,180.959 402.086,188.584C415.069,197.797 425.954,209.731 433.919,223.593C440.694,234.62 445.371,247.065 447.412,260.388C455.576,263.053 461.472,270.735 461.472,279.778C461.472,288.396 456.114,295.766 448.546,298.743L448.546,437.873C448.546,470.501 426.18,492.215 399.251,499.897Z" style="fill:rgb(221,218,236);"/>
            </g>
            <g>
                <path d="M143.392,171.377C155.411,173.418 166.778,177.387 177.125,182.971L174.035,167.748C170.662,151.08 160.117,136.821 143.109,136.821L106.91,136.821C103.367,136.821 100.135,137.445 97.159,138.55L112.069,138.55C129.077,138.55 139.622,152.809 142.995,169.477L143.392,171.377Z" style="fill:rgb(43,77,102);"/>
            </g>
            <g>
                <path d="M438.369,182.575C438.539,182.66 438.681,182.745 438.851,182.83C438.681,182.745 438.539,182.66 438.369,182.575ZM400.384,170.669C413.82,172.313 426.491,176.367 437.972,182.377C438.085,182.434 438.227,182.519 438.369,182.575C426.548,176.338 413.679,172.285 400.384,170.669ZM400.384,170.669C413.962,172.313 426.775,176.452 438.369,182.575C438.624,182.717 438.851,182.858 439.106,182.972L436.016,167.749C432.643,151.081 422.098,136.822 405.09,136.822L368.863,136.822C385.899,136.822 396.444,151.081 399.818,167.749L400.384,170.669Z" style="fill:rgb(43,77,102);"/>
            </g>
            <g>
                <path d="M124.995,354.276C166.155,354.276 199.49,320.911 199.49,279.779C199.49,238.647 166.154,205.282 124.995,205.282C115.527,205.282 106.485,207.068 98.151,210.271C112.013,218.095 123.096,230.228 129.644,244.827C146.907,247.095 160.259,261.864 160.259,279.78C160.259,299.255 144.47,315.044 124.996,315.044L124.542,315.044C116.066,328.424 103.424,338.913 88.457,344.696C99.256,350.789 111.729,354.276 124.995,354.276Z" style="fill:rgb(43,77,102);"/>
            </g>
            <g>
                <path d="M124.995,315.043C144.469,315.043 160.258,299.253 160.258,279.779C160.258,261.863 146.907,247.094 129.643,244.826C128.112,244.628 126.582,244.514 124.994,244.514C120.373,244.514 115.951,245.421 111.898,247.037C122.5,253.103 129.643,264.556 129.643,277.624C129.643,292.478 120.459,305.178 107.476,310.365C112.522,313.256 118.333,314.957 124.541,315.042L124.995,315.042L124.995,315.043Z" style="fill:rgb(221,218,236);"/>
            </g>
            <g>
                <path d="M62.944,501.003C94.012,510.471 131.628,501.173 148.098,468.262L180.073,404.452C197.846,373.241 197.251,371.966 227.951,371.966L190.279,371.966C150.452,371.966 152.861,370.464 133.5,404.452L101.525,468.262C93.02,485.242 78.903,495.929 62.944,501.003Z" style="fill:rgb(221,218,236);"/>
            </g>
            <g>
                <path d="M386.976,197.781C371.602,197.781 359.094,210.289 359.094,225.663C359.094,241.037 371.601,253.545 386.976,253.545C402.351,253.545 414.858,241.037 414.858,225.663C414.858,210.289 402.351,197.781 386.976,197.781ZM386.976,238.545C379.873,238.545 374.095,232.767 374.095,225.663C374.095,218.559 379.873,212.781 386.976,212.781C394.079,212.781 399.857,218.559 399.857,225.663C399.857,232.767 394.079,238.545 386.976,238.545Z" style="fill-rule:nonzero;"/>
                <path d="M332.862,251.897C317.488,251.897 304.98,264.405 304.98,279.779C304.98,295.153 317.487,307.661 332.862,307.661C348.237,307.661 360.744,295.153 360.744,279.779C360.744,264.404 348.237,251.897 332.862,251.897ZM332.862,292.66C325.759,292.66 319.981,286.882 319.981,279.778C319.981,272.675 325.759,266.896 332.862,266.896C339.965,266.896 345.743,272.674 345.743,279.778C345.744,286.882 339.965,292.66 332.862,292.66Z" style="fill-rule:nonzero;"/>
                <path d="M386.976,306.012C371.602,306.012 359.094,318.52 359.094,333.894C359.094,349.268 371.601,361.776 386.976,361.776C402.351,361.776 414.858,349.268 414.858,333.894C414.858,318.52 402.351,306.012 386.976,306.012ZM386.976,346.776C379.873,346.776 374.095,340.998 374.095,333.894C374.095,326.791 379.873,321.012 386.976,321.012C394.079,321.012 399.857,326.79 399.857,333.894C399.857,340.997 394.079,346.776 386.976,346.776Z" style="fill-rule:nonzero;"/>
                <path d="M213.988,330.379C213.988,334.521 217.346,337.879 221.488,337.879L236.71,337.879C240.852,337.879 244.21,334.521 244.21,330.379C244.21,326.237 240.852,322.879 236.71,322.879L221.488,322.879C217.346,322.879 213.988,326.237 213.988,330.379Z" style="fill-rule:nonzero;"/>
                <path d="M267.789,330.379C267.789,334.521 271.147,337.879 275.289,337.879L290.484,337.879C294.627,337.879 297.984,334.521 297.984,330.379C297.984,326.237 294.626,322.879 290.484,322.879L275.29,322.879C271.147,322.879 267.789,326.237 267.789,330.379Z" style="fill-rule:nonzero;"/>
                <path d="M276.253,238.318L235.717,238.318C231.575,238.318 228.217,241.676 228.217,245.818C228.217,249.96 231.575,253.318 235.717,253.318L276.253,253.318C280.396,253.318 283.753,249.96 283.753,245.818C283.754,241.676 280.396,238.318 276.253,238.318Z" style="fill-rule:nonzero;"/>
                <path d="M206.991,279.779C206.991,234.565 170.208,197.781 124.996,197.781C79.799,197.781 43.029,234.565 43.029,279.779C43.029,324.993 79.799,361.776 124.996,361.776C170.208,361.776 206.991,324.992 206.991,279.779ZM58.029,279.779C58.029,242.837 88.07,212.782 124.996,212.782C161.937,212.782 191.991,242.837 191.991,279.779C191.991,316.721 161.937,346.776 124.996,346.776C88.07,346.776 58.029,316.721 58.029,279.779Z" style="fill-rule:nonzero;"/>
                <path d="M167.759,279.779C167.759,256.198 148.575,237.014 124.996,237.014C101.431,237.014 82.26,256.198 82.26,279.779C82.26,303.359 101.431,322.543 124.996,322.543C148.575,322.543 167.759,303.359 167.759,279.779ZM97.26,279.779C97.26,264.469 109.702,252.015 124.995,252.015C140.304,252.015 152.758,264.47 152.758,279.779C152.758,295.088 140.304,307.543 124.995,307.543C109.702,307.543 97.26,295.088 97.26,279.779Z" style="fill-rule:nonzero;"/>
                <path d="M496.99,350.631C492.847,350.631 489.49,353.989 489.49,358.131L489.49,439.375C489.49,472.238 464.108,489.9 442.372,495.04C417.141,501.003 385.156,494.001 370.58,464.904L336.353,397.062C327.499,381.47 323.056,373.644 315.062,369.025C307.085,364.414 298.033,364.427 279.978,364.459L231.995,364.459C213.942,364.43 204.885,364.414 196.904,369.034C188.911,373.662 184.465,381.503 175.608,397.123L141.392,464.902C126.816,494 94.842,501.007 69.618,495.04C47.887,489.902 22.51,472.24 22.51,439.375L22.51,358.131C22.51,353.989 19.152,350.631 15.01,350.631C10.868,350.631 7.51,353.989 7.51,358.131L7.51,439.375C7.51,473.633 30.534,501.213 66.166,509.638C97.137,516.962 136.557,508.046 154.803,471.621L188.656,404.522C195.939,391.678 199.951,384.603 204.421,382.016C208.903,379.421 217.096,379.437 231.97,379.459L280.004,379.459C294.871,379.433 303.074,379.42 307.557,382.011C312.024,384.593 316.033,391.652 323.309,404.468L357.167,471.619C371.58,500.392 399.201,511.999 425.442,511.999C432.424,511.999 439.312,511.176 445.823,509.637C481.461,501.21 504.489,473.631 504.489,439.375L504.489,358.131C504.49,353.989 501.133,350.631 496.99,350.631Z" style="fill-rule:nonzero;"/>
                <path d="M488.814,221.269C478.355,203.109 463.381,188.386 445.791,178.2L443.368,166.261C438.756,143.476 424.089,129.322 405.091,129.322L368.863,129.322C349.864,129.322 335.197,143.477 330.585,166.27L328.194,178.157C318.793,183.59 310.113,190.335 302.46,198.263L283.783,198.263L283.783,187.11C283.783,175.802 274.719,166.592 263.487,166.339L263.487,133.165C263.487,123.108 271.682,114.926 281.754,114.926L340.262,114.926C358.591,114.926 373.501,100.002 373.501,81.658C373.501,63.329 358.59,48.418 340.262,48.418L281.754,48.418C271.681,48.418 263.487,40.223 263.487,30.15L263.487,7.5C263.487,3.358 260.129,0 255.987,0C251.845,0 248.487,3.358 248.487,7.5L248.487,30.15C248.487,48.494 263.411,63.419 281.754,63.419L340.262,63.419C350.319,63.419 358.501,71.601 358.501,81.658C358.501,91.731 350.319,99.926 340.262,99.926L281.754,99.926C263.411,99.926 248.487,114.837 248.487,133.166L248.487,166.342C237.252,166.61 228.191,175.813 228.191,187.112L228.191,198.265L209.515,198.265C201.869,190.345 193.197,183.604 183.806,178.174L181.389,166.264C176.778,143.479 162.111,129.325 143.111,129.325L106.91,129.325C87.911,129.325 73.244,143.48 68.634,166.26L66.211,178.197C48.622,188.383 33.649,203.106 23.188,221.269C12.931,238.004 7.51,257.303 7.51,277.085L7.51,323.518C7.51,327.66 10.868,331.018 15.01,331.018C19.152,331.018 22.51,327.66 22.51,323.518L22.51,277.085C22.51,260.039 27.184,243.419 36.027,229.021C36.065,228.959 36.103,228.896 36.139,228.833C54.391,197.075 88.439,177.346 124.995,177.346C153.738,177.346 181.339,189.545 200.722,210.814C202.143,212.374 204.156,213.262 206.266,213.262L305.707,213.262C307.817,213.262 309.829,212.373 311.251,210.814C330.632,189.544 358.234,177.346 386.977,177.346C423.55,177.346 457.609,197.075 475.861,228.833C475.896,228.893 475.931,228.953 475.967,229.012C484.814,243.46 489.49,260.083 489.49,277.085L489.49,323.518C489.49,327.66 492.848,331.018 496.99,331.018C501.133,331.018 504.49,327.66 504.49,323.518L504.49,277.085C504.49,257.353 499.07,238.054 488.814,221.269ZM124.995,162.346C110.494,162.346 96.339,165.058 83.158,170.106L83.335,169.236C85.773,157.191 93.245,144.321 106.91,144.321L143.109,144.321C156.773,144.321 164.247,157.191 166.685,169.24L166.86,170.103C153.61,165.038 139.43,162.346 124.995,162.346ZM268.783,198.263L243.19,198.263L243.19,187.11C243.19,183.915 245.789,181.315 248.985,181.315L263.017,181.315C266.142,181.315 268.783,183.968 268.783,187.11L268.783,198.263ZM386.976,162.346C372.542,162.346 358.363,165.038 345.113,170.102L345.287,169.236C347.725,157.191 355.197,144.321 368.862,144.321L405.09,144.321C418.753,144.321 426.227,157.191 428.666,169.24L428.843,170.112C415.654,165.06 401.489,162.346 386.976,162.346Z" style="fill-rule:nonzero;"/>
                <path d="M441.09,307.661C456.464,307.661 468.972,295.153 468.972,279.779C468.972,264.405 456.465,251.897 441.09,251.897C425.715,251.897 413.208,264.405 413.208,279.779C413.208,295.153 425.716,307.661 441.09,307.661ZM441.09,266.897C448.193,266.897 453.971,272.675 453.971,279.779C453.971,286.882 448.193,292.661 441.09,292.661C433.987,292.661 428.209,286.883 428.209,279.779C428.209,272.676 433.987,266.897 441.09,266.897Z" style="fill-rule:nonzero;"/>
            </g>
        </g>
    </g>
</svg>
