<?xml version="1.0" encoding="UTF-8" standalone="no"?>
<!DOCTYPE svg PUBLIC "-//W3C//DTD SVG 1.1//EN" "http://www.w3.org/Graphics/SVG/1.1/DTD/svg11.dtd">
<svg width="100%" height="100%" viewBox="0 0 512 512" version="1.1" xmlns="http://www.w3.org/2000/svg" xmlns:xlink="http://www.w3.org/1999/xlink" xml:space="preserve" xmlns:serif="http://www.serif.com/" style="fill-rule:evenodd;clip-rule:evenodd;stroke-linejoin:round;stroke-miterlimit:2;">
    <rect x="-2.515" y="-3.761" width="516.665" height="519.53" style="fill:rgb(244,243,243);"/>
    <g transform="matrix(0.608467,0,0,0.608467,100.233,100.233)">
        <path d="M451.97,218.824C451.761,218.357 451.574,217.868 451.37,217.373L393.203,76.934L368.283,87.257L333.879,35.768L308.636,52.635L256.001,0C256,0.001 136.02,319.396 136.02,319.396L256,511.999C312.728,511.999 365.996,489.972 405.995,449.975C436.182,419.787 456.337,381.692 464.283,339.806C472.032,298.952 467.774,257.117 451.97,218.824Z" style="fill:rgb(255,79,117);fill-rule:nonzero;"/>
        <path d="M203.365,52.635L178.122,35.768L143.718,87.257L118.798,76.934L60.022,218.828C44.223,257.12 39.968,298.955 47.719,339.808C55.666,381.696 75.824,419.793 106.012,449.982C146.01,489.974 199.276,512 256,512L256,0.001L203.365,52.635Z" style="fill:rgb(255,119,107);fill-rule:nonzero;"/>
        <path d="M351.513,221.498L256,125.985L136.019,319.396L255.999,451.991C292.137,451.991 326.056,437.973 351.513,412.521C404.178,359.856 404.178,274.163 351.513,221.498Z" style="fill:rgb(255,204,74);fill-rule:nonzero;"/>
        <path d="M160.487,221.498C107.822,274.162 107.823,359.856 160.489,412.525C185.943,437.975 219.862,451.992 256,451.992L256,125.985L160.487,221.498Z" style="fill:rgb(255,226,120);fill-rule:nonzero;"/>
        <path d="M256,271.968L219.679,331.976L256,391.984C289.088,391.984 316.008,365.064 316.008,331.976C316.008,298.888 289.088,271.968 256,271.968Z" style="fill:rgb(255,240,191);fill-rule:nonzero;"/>
        <path d="M195.992,331.976C195.992,365.064 222.912,391.984 256,391.984L256,271.968C222.912,271.968 195.992,298.887 195.992,331.976Z" style="fill:white;fill-rule:nonzero;"/>
    </g>
</svg>
