<?xml version="1.0" encoding="UTF-8" standalone="no"?>
<!DOCTYPE svg PUBLIC "-//W3C//DTD SVG 1.1//EN" "http://www.w3.org/Graphics/SVG/1.1/DTD/svg11.dtd">
<svg width="100%" height="100%" viewBox="0 0 512 512" version="1.1" xmlns="http://www.w3.org/2000/svg" xmlns:xlink="http://www.w3.org/1999/xlink" xml:space="preserve" xmlns:serif="http://www.serif.com/" style="fill-rule:evenodd;clip-rule:evenodd;stroke-linejoin:round;stroke-miterlimit:2;">
    <g transform="matrix(0.945374,0,0,0.958146,20.2631,9.17397)">
        <rect x="-27.268" y="-15.006" width="551.105" height="543.758" style="fill:rgb(244,243,243);"/>
        <g transform="matrix(0.772357,0,0,0.762061,59.4159,37.5614)">
            <path d="M211.169,426.667L211.169,420.637C211.169,414.331 215.323,408.777 221.373,406.999L239.505,401.666C242.942,400.655 245.303,397.5 245.303,393.917C245.303,391.55 244.291,389.325 242.483,387.796C234.994,381.462 216.259,360.556 232.625,319.638L292.867,319.638L293.089,426.667L211.169,426.667Z" style="fill:rgb(169,186,90);fill-rule:nonzero;"/>
            <path d="M293.089,433.493L211.169,433.493C207.399,433.493 204.343,430.437 204.343,426.667L204.343,420.637C204.343,411.366 210.553,403.063 219.447,400.447L237.58,395.114C238.111,394.96 238.476,394.467 238.476,393.917C238.476,393.658 238.406,393.291 238.077,393.011C230.687,386.761 208.003,362.815 226.287,317.1C227.323,314.51 229.837,312.81 232.627,312.81L292.867,312.81C296.631,312.81 299.687,315.856 299.694,319.623L299.918,426.653C299.921,428.465 299.204,430.206 297.924,431.49C296.639,432.773 294.903,433.493 293.089,433.493ZM218.04,419.84L286.251,419.84L286.054,326.463L237.358,326.463C225.691,359.83 239.974,376.73 246.895,382.583C250.221,385.396 252.131,389.526 252.131,393.917C252.131,400.485 247.731,406.364 241.43,408.214L223.3,413.548C220.433,414.391 218.363,416.913 218.04,419.84Z" style="fill:rgb(76,36,29);fill-rule:nonzero;"/>
            <path d="M162.343,249.354L113.969,270.085C102.176,275.14 88.581,269.034 84.523,256.862L82.021,249.354L78.223,251.254C69.231,255.751 58.296,252.105 53.799,243.113L50.77,237.054C45.628,226.772 48.674,214.277 57.972,207.515L103.718,174.247C130.483,154.781 167.985,160.867 187.221,187.798C197.303,201.911 210.179,213.799 225.051,222.722L227.234,224.031C244.007,234.095 262.799,240.323 282.262,242.27L321.999,246.243C339.558,247.999 356.432,253.486 372.234,261.345C394.047,272.195 430.921,281.984 463.551,249.354C463.551,249.354 471.446,288.828 389.228,325.772C369.026,334.85 347.23,340.084 325.125,341.465L260.622,345.496C220.706,347.991 184.335,322.654 172.843,284.348L162.343,249.354Z" style="fill:rgb(169,186,90);fill-rule:nonzero;"/>
            <path d="M255.106,352.497C214.205,352.497 178.2,325.97 166.303,286.31L158.003,258.644L116.659,276.361C109.28,279.521 100.859,279.451 93.546,276.161C86.229,272.877 80.582,266.631 78.046,259.021L77.952,258.737C72.852,260.441 67.359,260.451 62.165,258.72C55.822,256.604 50.681,252.146 47.693,246.168L44.663,240.108C38.004,226.784 41.914,210.755 53.96,201.998L99.7,168.728C114.13,158.232 131.77,154.025 149.39,156.885C166.999,159.746 182.407,169.315 192.777,183.832C202.373,197.265 214.414,208.382 228.564,216.871L230.746,218.182C246.55,227.663 264.6,233.646 282.943,235.479L322.679,239.452C340.009,241.186 357.705,246.496 375.272,255.235C397.428,266.255 429.899,273.348 458.725,244.533C460.501,242.749 463.107,242.096 465.531,242.826C467.937,243.557 469.751,245.553 470.245,248.02C470.612,249.849 478.215,293.277 392.021,332.003C371.224,341.347 348.858,346.824 325.548,348.283L261.045,352.312C259.057,352.433 257.077,352.497 255.106,352.497ZM162.343,242.529C163.33,242.529 164.32,242.743 165.233,243.173C166.996,243.995 168.323,245.533 168.883,247.393L179.383,282.387C190.015,317.846 223.305,341.023 260.193,338.683L324.697,334.653C346.363,333.297 367.133,328.214 386.43,319.546C430.23,299.863 446.923,279.852 453.214,266.516C421.04,287.186 387.69,276.652 369.195,267.46C353.108,259.458 337.005,254.604 321.321,253.037L281.585,249.064C261.251,247.031 241.241,240.398 223.722,229.888L221.539,228.577C205.776,219.117 192.358,206.734 181.67,191.768C173.433,180.234 161.193,172.634 147.203,170.365C133.228,168.078 119.2,171.431 107.737,179.768L61.993,213.038C55.366,217.858 53.216,226.674 56.88,234.001L59.909,240.061C61.269,242.782 63.602,244.804 66.487,245.769C69.376,246.726 72.453,246.509 75.174,245.149L78.974,243.253C80.741,242.364 82.811,242.294 84.637,243.053C86.463,243.809 87.873,245.323 88.501,247.2L91.005,254.706C92.355,258.763 95.244,261.96 99.145,263.709C103.049,265.458 107.361,265.496 111.285,263.815L159.659,243.086C160.514,242.714 161.43,242.529 162.343,242.529Z" style="fill:rgb(76,36,29);fill-rule:nonzero;"/>
            <path d="M82.026,256.183C79.519,256.183 77.109,254.802 75.913,252.409C74.226,249.035 75.592,244.936 78.966,243.249L139.209,213.127C142.592,211.441 146.683,212.809 148.369,216.18C150.055,219.554 148.69,223.654 145.316,225.34L85.072,255.462C84.093,255.954 83.05,256.183 82.026,256.183Z" style="fill:rgb(76,36,29);fill-rule:nonzero;"/>
            <path d="M262.746,289.516C262.746,289.516 223.875,347.822 270.418,397.512C271.896,399.09 272.787,401.162 272.787,403.325C272.787,407.243 270.109,410.653 266.303,411.581L244.721,416.848C237.049,418.72 231.651,425.595 231.651,433.492L297.718,433.492C306.473,433.492 313.571,426.394 313.571,417.638L313.571,399.957C313.571,399.957 363.15,359.796 353.109,299.554" style="fill:rgb(169,186,90);fill-rule:nonzero;"/>
            <path d="M297.716,440.32L231.649,440.32C227.879,440.32 224.823,437.263 224.823,433.493C224.823,422.417 232.339,412.846 243.099,410.216L264.685,404.949C265.433,404.767 265.958,404.099 265.958,403.323C265.958,402.956 265.766,402.533 265.438,402.186C215.767,349.153 256.645,286.356 257.065,285.73C259.152,282.6 263.381,281.757 266.518,283.834C269.655,285.918 270.508,290.154 268.431,293.294C266.974,295.497 233.211,347.807 275.398,392.847C278.112,395.74 279.612,399.464 279.612,403.325C279.612,410.411 274.806,416.534 267.921,418.215L246.339,423.485C244.229,423.999 242.408,425.136 241.051,426.668L297.714,426.668C302.691,426.668 306.741,422.618 306.741,417.642L306.741,399.962C306.741,397.913 307.671,395.962 309.262,394.665C309.728,394.284 355.618,356.142 346.375,300.682C345.755,296.962 348.268,293.446 351.985,292.825C355.731,292.192 359.221,294.721 359.842,298.435C369.19,354.505 330.895,393.557 320.396,403.074L320.396,417.64C320.396,430.147 310.223,440.32 297.716,440.32Z" style="fill:rgb(76,36,29);fill-rule:nonzero;"/>
            <circle cx="112.142" cy="209.195" r="6.62" style="fill:rgb(76,36,29);"/>
            <path d="M182.424,290.133L149.014,290.133C138.098,290.133 129.249,298.982 129.249,309.898L129.249,320.853C129.249,326.509 133.833,331.093 139.489,331.093C145.145,331.093 149.729,326.509 149.729,320.853C149.729,315.197 154.313,310.613 159.969,310.613L202.505,310.613" style="fill:rgb(169,186,90);fill-rule:nonzero;"/>
            <path d="M139.489,337.92C130.079,337.92 122.423,330.264 122.423,320.853L122.423,309.897C122.423,295.233 134.349,283.307 149.012,283.307L182.422,283.307C186.192,283.307 189.249,286.363 189.249,290.133C189.249,293.903 186.192,296.96 182.422,296.96L149.012,296.96C141.879,296.96 136.076,302.763 136.076,309.897L136.076,320.853C136.076,322.737 137.605,324.267 139.489,324.267C141.373,324.267 142.903,322.737 142.903,320.853C142.903,311.443 150.559,303.787 159.969,303.787L202.503,303.787C206.273,303.787 209.329,306.843 209.329,310.613C209.329,314.383 206.273,317.44 202.503,317.44L159.969,317.44C158.085,317.44 156.556,318.969 156.556,320.853C156.556,330.264 148.9,337.92 139.489,337.92Z" style="fill:rgb(76,36,29);fill-rule:nonzero;"/>
        </g>
    </g>
</svg>
