<svg viewBox="0 0 256 256" xmlns="http://www.w3.org/2000/svg" xml:space="preserve" style="fill-rule:evenodd;clip-rule:evenodd;stroke-linecap:round;stroke-linejoin:round;stroke-miterlimit:1.5"><path style="fill:#f4f3f3" d="M0 0h256v256H0z"/><path d="m118.015 82.594-51.834 83.001" style="fill:none;stroke:#505050;stroke-width:9.5px"/><path d="m189.159 165.005-122.002.971" style="fill:none;stroke:#505050;stroke-width:9px"/><path d="m149.349 101.312 40.47 63.336M149.349 101.312l-23.022 36.967M118.501 83.369l11.232 17.506" style="fill:none;stroke:#505050;stroke-width:9.5px"/><path d="M179.046 80.024c5.777 0 10.467 4.69 10.467 10.467s-4.69 10.467-10.467 10.467-10.467-4.69-10.467-10.467 4.69-10.467 10.467-10.467Zm0 0c5.777 0 10.467 4.69 10.467 10.467s-4.69 10.467-10.467 10.467-10.467-4.69-10.467-10.467 4.69-10.467 10.467-10.467Z" style="fill:#858585;stroke:#d65351;stroke-width:7.58px"/></svg>
