<?xml version="1.0" encoding="UTF-8" standalone="no"?>
<!DOCTYPE svg PUBLIC "-//W3C//DTD SVG 1.1//EN" "http://www.w3.org/Graphics/SVG/1.1/DTD/svg11.dtd">
<svg width="100%" height="100%" viewBox="0 0 512 512" version="1.1" xmlns="http://www.w3.org/2000/svg" xmlns:xlink="http://www.w3.org/1999/xlink" xml:space="preserve" xmlns:serif="http://www.serif.com/" style="fill-rule:evenodd;clip-rule:evenodd;stroke-linejoin:round;stroke-miterlimit:2;">
    <rect x="-1.444" y="-1.961" width="514.882" height="515.548" style="fill:rgb(235,235,235);"/>
    <g id="_026---Parrot" serif:id="026---Parrot" transform="matrix(0.526917,0,0,0.526917,121.109,121.109)">
        <path id="Shape" d="M141.241,379.586C136.366,379.586 132.414,375.634 132.414,370.759L132.414,332.006L100.838,315.754C97.938,314.367 96.021,311.514 95.833,308.305C95.645,305.096 97.217,302.039 99.936,300.324C102.655,298.609 106.091,298.507 108.906,300.058L140.491,316.31C146.385,319.32 150.088,325.387 150.069,332.006L150.069,370.759C150.069,375.634 146.117,379.586 141.241,379.586Z" style="fill:rgb(128,83,51);fill-rule:nonzero;"/>
        <path id="Shape1" serif:id="Shape" d="M104.995,312.188C98.803,318.589 90.279,322.203 81.373,322.203C72.467,322.203 63.942,318.589 57.75,312.188C47.457,301.594 38.674,269.895 35.452,257.077C35.118,255.752 35.417,254.346 36.262,253.272C37.107,252.197 38.402,251.575 39.768,251.586C54.625,251.666 94.499,252.893 104.995,263.698C118.014,277.24 118.014,298.646 104.995,312.188Z" style="fill:rgb(113,194,133);fill-rule:nonzero;"/>
        <path id="Shape2" serif:id="Shape" d="M208.154,17.655L145.743,17.655C137.864,17.643 130.938,22.873 128.794,30.455L114.935,73.799C114.441,75.478 114.986,77.291 116.325,78.42C117.664,79.548 119.543,79.778 121.114,79.007L141.594,66.737C144.028,84.168 158.951,97.131 176.552,97.103L218.041,97.103L208.154,17.655Z" style="fill:rgb(240,196,25);fill-rule:nonzero;"/>
        <path id="Rectangle-path" d="M512,387.512C512,378.266 504.493,370.759 495.247,370.759L16.753,370.759C7.507,370.759 0,378.266 0,387.512L0,389.316C0,398.562 7.507,406.069 16.753,406.069L495.247,406.069C504.493,406.069 512,398.562 512,389.316L512,387.512Z" style="fill:rgb(165,106,67);"/>
        <path id="Shape3" serif:id="Shape" d="M388.414,326.268C388.414,320.671 388.82,322.048 386.913,321.412C372.93,316.751 380.628,317.793 353.103,317.793L353.103,476.69C353.103,486.44 361.008,494.345 370.759,494.345C380.509,494.345 388.414,486.44 388.414,476.69L388.414,494.345C388.414,504.096 396.318,512 406.069,512C415.82,512 423.724,504.096 423.724,494.345L423.724,331.034C411.793,331.04 399.916,329.437 388.414,326.268Z" style="fill:rgb(230,76,60);fill-rule:nonzero;"/>
        <path id="Shape4" serif:id="Shape" d="M388.414,476.69C388.414,486.44 380.509,494.345 370.759,494.345C361.008,494.345 353.103,486.44 353.103,476.69L353.103,317.793C380.646,317.793 372.868,316.734 386.913,321.412C389.297,322.207 388.414,311.879 388.414,476.69Z" style="fill:rgb(192,58,43);fill-rule:nonzero;"/>
        <path id="Shape5" serif:id="Shape" d="M275.209,376.444C273.114,375.396 271.522,373.56 270.782,371.338C270.042,369.116 270.215,366.691 271.263,364.597L298.628,309.954C300.822,305.596 306.134,303.841 310.493,306.035C314.851,308.229 316.606,313.54 314.412,317.899L287.047,372.542C284.85,376.882 279.556,378.627 275.209,376.444Z" style="fill:rgb(165,106,67);fill-rule:nonzero;"/>
        <path id="Shape6" serif:id="Shape" d="M317.793,370.759L317.793,397.241C317.764,406.98 309.877,414.867 300.138,414.897L264.828,414.897C255.089,414.867 247.201,406.98 247.172,397.241L247.172,370.759C247.172,365.883 251.125,361.931 256,361.931L308.966,361.931C313.841,361.931 317.793,365.883 317.793,370.759Z" style="fill:rgb(240,196,25);fill-rule:nonzero;"/>
        <path id="Shape7" serif:id="Shape" d="M376.143,326.621L335.448,326.621C286.695,326.621 247.172,287.098 247.172,238.345C247.172,122.827 247.393,131.249 246.643,127.294C244.364,115.672 236.456,105.944 225.545,101.341C207.858,93.529 195.893,76.631 194.399,57.354C192.905,38.076 202.123,19.537 218.394,9.092C227.544,3.234 238.163,0.082 249.026,0L264.828,0C290.585,-0.014 315.292,10.212 333.506,28.425C351.719,46.639 361.945,71.346 361.931,97.103C361.931,189.793 359.106,134.833 376.143,326.621Z" style="fill:rgb(230,76,60);fill-rule:nonzero;"/>
        <path id="Shape8" serif:id="Shape" d="M300.138,66.207C300.157,97.107 277.275,123.236 246.643,127.294C245.593,120.9 242.604,114.983 238.08,110.345C249.832,110.415 261.127,105.796 269.462,97.511C277.796,89.226 282.483,77.959 282.483,66.207C282.483,61.332 286.435,57.379 291.31,57.379C296.186,57.379 300.138,61.332 300.138,66.207Z" style="fill:rgb(192,58,43);fill-rule:nonzero;"/>
        <path id="Shape9" serif:id="Shape" d="M218.041,97.103L176.552,97.103C158.951,97.131 144.028,84.168 141.594,66.737C148.074,62.852 149.23,61.793 152.188,61.793L195.001,61.793C197.426,76.259 205.777,89.057 218.041,97.103Z" style="fill:rgb(242,156,31);fill-rule:nonzero;"/>
        <path id="Shape10" serif:id="Shape" d="M291.31,397.241L291.31,414.897L273.655,414.897L273.655,397.241C273.655,392.366 277.607,388.414 282.483,388.414C287.358,388.414 291.31,392.366 291.31,397.241Z" style="fill:rgb(242,156,31);fill-rule:nonzero;"/>
        <path id="Shape11" serif:id="Shape" d="M285.219,63.029C284.239,88.198 266.389,109.531 241.788,114.935C237.733,108.99 232.111,104.285 225.545,101.341C207.858,93.529 195.893,76.631 194.399,57.354C192.905,38.076 202.123,19.537 218.394,9.092C219.277,9.092 220.495,8.828 224.574,8.828C258.03,8.828 285.219,33.103 285.219,63.029Z" style="fill:rgb(236,240,241);fill-rule:nonzero;"/>
        <circle id="Oval" cx="238.345" cy="44.138" r="8.828" style="fill:rgb(70,79,93);"/>
        <path id="Shape12" serif:id="Shape" d="M447.647,280.806C434.663,208.486 373.759,154.52 300.403,150.334C298.016,150.262 295.702,151.16 293.989,152.824C292.276,154.487 291.309,156.774 291.31,159.161L291.31,203.034C291.354,276.146 350.612,335.404 423.724,335.448L441.379,335.448C446.255,335.448 450.207,331.496 450.207,326.621C450.937,311.302 450.079,295.948 447.647,280.806Z" style="fill:rgb(79,186,111);fill-rule:nonzero;"/>
        <path id="Shape13" serif:id="Shape" d="M450.207,326.621C450.207,331.496 446.255,335.448 441.379,335.448C423.584,336.592 405.719,334.984 388.414,330.681C388.173,330.608 387.937,330.519 387.708,330.417C387.435,330.4 387.167,330.341 386.913,330.24L377.114,326.974C346.504,315.418 321.233,292.975 306.141,263.945C326.886,274.361 370.582,286.985 447.647,280.806C450.082,295.948 450.94,311.302 450.207,326.621Z" style="fill:rgb(59,151,211);fill-rule:nonzero;"/>
        <path id="Shape14" serif:id="Shape" d="M447.647,280.806C370.582,286.985 326.886,274.361 306.141,263.945C296.373,245.129 291.286,224.235 291.31,203.034C291.31,203.034 323.443,235.167 433.523,238.168C440.311,251.605 445.071,265.973 447.647,280.806Z" style="fill:rgb(240,196,25);fill-rule:nonzero;"/>
    </g>
</svg>
