<svg viewBox="0 0 256 256" xmlns="http://www.w3.org/2000/svg" xml:space="preserve" style="fill-rule:evenodd;clip-rule:evenodd;stroke-linejoin:round;stroke-miterlimit:2"><path style="fill:#f4f3f3" d="M0 0h256v256H0z"/><path style="fill:none" d="M45.554 45.554h164.892v164.892H45.554z"/><text x="100.279" y="126.469" style="font-family:'ArialRoundedMTBold','Arial Rounded MT Bold',sans-serif;font-size:32.978px">Oh!</text><path d="M109.554 71.242v8.666h-5.432c-7.477 0-13.548 6.071-13.548 13.548v101.229h-.121c-6.135 0-11.116-4.981-11.116-11.116V82.358c0-6.135 4.981-11.116 11.116-11.116h19.101Zm37.4 0h19.036c5.294 0 9.728 3.708 10.845 8.666h-29.881v-8.666Z" style="fill:#dddee8"/><path d="M151.132 68.075h16.048c7.333 0 13.287 5.868 13.287 13.096v103.603c0 7.228-5.954 13.096-13.287 13.096H88.82c-7.333 0-13.287-5.868-13.287-13.096V81.171c0-7.228 5.954-13.096 13.287-13.096h16.254v4.907H90.767c-5.412 0-9.806 4.394-9.806 9.806V183.49c0 5.412 4.394 9.806 9.806 9.806h74.557c5.412 0 9.806-4.394 9.806-9.806V82.788c0-5.412-4.394-9.806-9.806-9.806h-14.192v-4.907Z"/><path style="fill:#dddee8" d="M110.601 62.769h6.445V78.76h-6.445z"/><path style="fill:#dddee8" d="M110.601 62.769h35.509v4.016h-35.509z"/><path d="M151.214 60.3c0-1.198-.984-2.17-2.195-2.17h-41.75c-1.212 0-2.195.972-2.195 2.17v20.206c0 1.198.983 2.17 2.195 2.17h41.75c1.211 0 2.195-.972 2.195-2.17V60.3Zm-5.37 4.713c0-.665-.546-1.205-1.22-1.205h-32.577c-.673 0-1.22.54-1.22 1.205v10.794c0 .665.547 1.206 1.22 1.206h32.577c.674 0 1.22-.541 1.22-1.206V65.013Z"/><g><path d="M157.782 150.263a3.06 3.06 0 0 0-3.059-3.059h-53.099a3.06 3.06 0 0 0 0 6.118h53.099a3.06 3.06 0 0 0 3.059-3.059ZM157.782 168.814a3.06 3.06 0 0 0-3.059-3.059h-53.099a3.06 3.06 0 0 0 0 6.118h53.099a3.06 3.06 0 0 0 3.059-3.059Z"/></g></svg>
