<?xml version="1.0" encoding="UTF-8" standalone="no"?>
<!DOCTYPE svg PUBLIC "-//W3C//DTD SVG 1.1//EN" "http://www.w3.org/Graphics/SVG/1.1/DTD/svg11.dtd">
<svg width="100%" height="100%" viewBox="0 0 512 512" version="1.1" xmlns="http://www.w3.org/2000/svg" xmlns:xlink="http://www.w3.org/1999/xlink" xml:space="preserve" xmlns:serif="http://www.serif.com/" style="fill-rule:evenodd;clip-rule:evenodd;stroke-linejoin:round;stroke-miterlimit:2;">
    <g transform="matrix(0.945374,0,0,0.958146,20.2631,9.17397)">
        <rect x="-27.268" y="-15.006" width="551.105" height="543.758" style="fill:rgb(244,243,243);"/>
        <g id="sword" transform="matrix(0.628329,0,0,0.628329,88.5061,96.7555)">
            <g>
                <g>
                    <path d="M96.833,494.901L21.089,502.895C17.201,503.304 13.617,501.86 11.112,499.355C8.607,496.85 7.162,493.266 7.571,489.378L15.566,413.634C15.888,410.58 17.332,407.761 19.628,405.726L250.199,200.852L309.614,260.267L104.741,490.838C102.705,493.135 99.886,494.579 96.833,494.901Z" style="fill:rgb(225,221,225);fill-rule:nonzero;"/>
                    <path d="M96.833,494.901L21.089,502.895C17.201,503.304 13.617,501.86 11.112,499.355L279.907,230.56L309.615,260.268L104.741,490.838C102.705,493.135 99.886,494.579 96.833,494.901Z" style="fill:rgb(181,173,182);fill-rule:nonzero;"/>
                    <path d="M96.833,494.901L21.089,502.895C17.201,503.304 13.617,501.86 11.112,499.355L32.39,478.077L80.192,473.022L288.233,238.884L309.615,260.267L104.741,490.838C102.705,493.135 99.886,494.579 96.833,494.901Z" style="fill:rgb(166,156,167);fill-rule:nonzero;"/>
                </g>
                <g>
                    <path d="M305.833,260.314L271.631,245.061C268.858,243.825 266.641,241.608 265.405,238.835L250.152,204.633C247.889,199.56 249.308,193.598 253.613,190.088L293.447,157.607L352.859,217.019L320.378,256.853C316.867,261.158 310.907,262.576 305.833,260.314Z" style="fill:rgb(252,166,47);fill-rule:nonzero;"/>
                    <path d="M305.83,260.311L283.22,250.228C287.596,250.254 291.92,248.314 294.851,244.739L333.431,197.598L352.857,217.023L320.374,256.848C316.868,261.155 310.91,262.573 305.83,260.311Z" style="fill:rgb(249,136,36);fill-rule:nonzero;"/>
                </g>
                <g transform="matrix(0.707,0.707,-0.707,0.707,202.23,-233.682)">
                    <rect x="355.721" y="61.939" width="54.948" height="130.664" style="fill:rgb(145,130,145);fill-rule:nonzero;"/>
                </g>
                <g transform="matrix(0.707,0.707,-0.707,0.707,211.943,-237.705)">
                    <rect x="379.17" y="71.653" width="27.474" height="130.664" style="fill:rgb(122,110,121);fill-rule:nonzero;"/>
                </g>
                <g>
                    <path d="M365.529,292.515C361.501,288.488 359.467,282.604 360.602,276.586L366.938,242.967L267.499,143.528L233.88,149.864C224.198,151.688 214.872,145.317 213.047,135.637C211.223,125.955 217.592,116.629 227.274,114.803L270.149,106.725C275.942,105.633 281.898,107.473 286.066,111.641L398.826,224.399C402.994,228.568 404.833,234.524 403.742,240.316L395.664,283.192C393.839,292.874 384.512,299.243 374.83,297.419C371.167,296.729 367.979,294.965 365.529,292.515Z" style="fill:rgb(253,221,69);fill-rule:nonzero;"/>
                </g>
                <g>
                    <path d="M374.831,297.421C371.169,296.734 367.977,294.968 365.524,292.515C361.496,288.488 359.469,282.598 360.608,276.587L361.469,272.003C366.55,269.671 370.456,265 371.56,259.093L379.641,216.215C380.738,210.422 378.893,204.471 374.726,200.304L398.823,224.4C402.99,228.568 404.834,234.518 403.738,240.311L395.657,283.189C393.839,292.872 384.514,299.239 374.831,297.421Z" style="fill:rgb(248,197,45);fill-rule:nonzero;"/>
                </g>
                <circle cx="453.936" cy="56.524" r="50.59" style="fill:rgb(253,221,69);"/>
                <path d="M489.713,92.295C469.956,112.051 437.926,112.051 418.171,92.295C414.805,88.929 412.004,85.205 409.793,81.238C429.062,92.051 453.898,89.259 470.287,72.87C486.676,56.481 489.469,31.644 478.656,12.376C482.623,14.585 486.346,17.386 489.713,20.753C509.468,40.51 509.468,72.54 489.713,92.295Z" style="fill:rgb(248,197,45);fill-rule:nonzero;"/>
                <circle cx="453.936" cy="56.524" r="20.271" style="fill:rgb(33,193,248);"/>
                <path d="M468.269,70.852C460.353,78.768 447.522,78.776 439.605,70.861C434.481,65.737 432.672,58.552 434.186,51.974C434.299,52.104 434.421,52.226 434.543,52.348C442.46,60.265 455.299,60.265 463.216,52.348C466.008,49.556 467.818,46.146 468.626,42.553C476.194,50.487 476.064,63.057 468.269,70.852Z" style="fill:rgb(49,167,251);fill-rule:nonzero;"/>
            </g>
            <g>
                <path d="M495.013,15.447C489.162,9.595 482.276,5.143 474.55,2.216C470.676,0.749 466.346,2.698 464.878,6.571C463.41,10.445 465.36,14.775 469.233,16.243C474.961,18.413 480.066,21.714 484.405,26.055C501.205,42.855 501.205,70.193 484.405,86.994C467.604,103.794 440.268,103.795 423.467,86.994C406.667,70.193 406.667,42.856 423.467,26.055C427.925,21.597 433.176,18.241 439.075,16.079C442.965,14.653 444.962,10.345 443.537,6.455C442.11,2.566 437.8,0.569 433.913,1.994C425.952,4.911 418.87,9.439 412.861,15.448C399.489,28.82 394.017,47.143 396.436,64.571L323.02,137.987L291.371,106.338C285.446,100.413 276.995,97.801 268.762,99.354L225.887,107.434C212.157,110.021 203.09,123.296 205.677,137.027C208.264,150.756 221.537,159.825 235.269,157.235L264.997,151.634L275.732,162.368L248.88,184.271C244.493,187.844 241.975,193.029 241.643,198.427L14.643,400.121C10.945,403.407 8.623,407.926 8.104,412.846L0.111,488.582C-0.519,494.555 1.554,500.416 5.801,504.664C9.548,508.41 14.55,510.466 19.776,510.466C20.475,510.466 21.178,510.429 21.882,510.355L97.619,502.362C102.539,501.843 107.058,499.521 110.344,495.822L221.499,370.723C224.25,367.627 223.971,362.885 220.874,360.134C217.777,357.382 213.037,357.662 210.286,360.759L99.131,485.858C98.334,486.755 97.238,487.318 96.046,487.444L26.265,494.809L268.981,252.092L296.101,264.181L233.829,334.265C231.078,337.361 231.357,342.102 234.454,344.853C235.883,346.123 237.661,346.747 239.433,346.747C241.502,346.747 243.562,345.896 245.043,344.228L312.03,268.837C317.425,268.509 322.614,265.984 326.192,261.59L348.094,234.73L358.834,245.47L353.233,275.198C351.681,283.431 354.296,291.888 360.226,297.819C363.837,301.431 368.408,303.842 373.442,304.791C375.021,305.089 376.593,305.232 378.144,305.232C390.083,305.232 400.745,296.733 403.035,284.582L411.114,241.707C412.666,233.474 410.055,225.022 404.131,219.098L402.076,217.043C399.147,214.114 394.397,214.114 391.469,217.043C388.54,219.972 388.54,224.721 391.469,227.65L393.524,229.705C395.942,232.122 397.007,235.57 396.374,238.929L388.294,281.805C387.238,287.408 381.816,291.103 376.22,290.051C374.165,289.664 372.303,288.683 370.835,287.215C368.412,284.79 367.343,281.338 367.976,277.978L374.31,244.359C374.769,241.924 373.996,239.418 372.243,237.666L272.805,138.228C271.053,136.476 268.546,135.701 266.112,136.161L232.493,142.495C226.891,143.545 221.475,139.851 220.419,134.25C219.364,128.647 223.062,123.232 228.665,122.176L271.541,114.096C274.901,113.466 278.348,114.529 280.765,116.946L366.44,202.619C369.369,205.548 374.118,205.548 377.046,202.619C379.975,199.69 379.975,194.941 377.046,192.012L372.482,187.448L445.902,114.028C448.567,114.397 451.252,114.588 453.938,114.588C468.814,114.588 483.69,108.926 495.015,97.601C517.662,74.95 517.662,38.096 495.013,15.447ZM24.608,411.335L246.282,214.369L258.374,241.486L15.658,484.201L23.022,414.42C23.147,413.227 23.711,412.131 24.608,411.335ZM314.562,252.113C313.198,253.789 310.87,254.344 308.892,253.459L274.67,238.204C273.599,237.728 272.741,236.866 272.257,235.785L257.008,201.588C256.125,199.604 256.677,197.266 258.356,195.899L286.392,173.03L337.432,224.069L314.562,252.113ZM386.51,152.203L358.263,123.956L374.319,107.9L402.566,136.147L386.51,152.203ZM333.627,148.593L347.656,134.563L375.903,162.809L361.873,176.839L333.627,148.593ZM413.173,125.539L384.926,97.292L401.241,80.977C404.028,87 407.901,92.64 412.861,97.599C417.822,102.561 423.464,106.434 429.49,109.222L413.173,125.539Z" style="fill-rule:nonzero;"/>
                <path d="M473.575,36.885C468.329,31.64 461.355,28.751 453.937,28.751C446.519,28.751 439.544,31.64 434.299,36.885C429.054,42.131 426.164,49.105 426.164,56.524C426.164,63.941 429.054,70.916 434.299,76.161C439.544,81.407 446.519,84.295 453.937,84.295C461.355,84.295 468.329,81.406 473.575,76.161C478.82,70.916 481.709,63.941 481.709,56.524C481.708,49.105 478.82,42.131 473.575,36.885ZM462.967,65.554C460.555,67.966 457.347,69.295 453.936,69.295C450.525,69.295 447.318,67.966 444.906,65.554C439.926,60.575 439.926,52.472 444.906,47.493C447.396,45.004 450.666,43.759 453.936,43.759C457.207,43.759 460.478,45.004 462.967,47.493C467.946,52.472 467.946,60.575 462.967,65.554Z" style="fill-rule:nonzero;"/>
                <path d="M285.967,202.658C283.038,205.587 283.038,210.336 285.967,213.265L297.199,224.497C298.663,225.963 300.583,226.695 302.502,226.695C304.422,226.695 306.342,225.963 307.806,224.497C310.735,221.568 310.735,216.82 307.806,213.891L296.574,202.658C293.647,199.729 288.898,199.73 285.967,202.658Z" style="fill-rule:nonzero;"/>
            </g>
        </g>
    </g>
</svg>
