<?xml version="1.0" encoding="UTF-8" standalone="no"?>
<!DOCTYPE svg PUBLIC "-//W3C//DTD SVG 1.1//EN" "http://www.w3.org/Graphics/SVG/1.1/DTD/svg11.dtd">
<svg width="100%" height="100%" viewBox="0 0 512 512" version="1.1" xmlns="http://www.w3.org/2000/svg" xmlns:xlink="http://www.w3.org/1999/xlink" xml:space="preserve" xmlns:serif="http://www.serif.com/" style="fill-rule:evenodd;clip-rule:evenodd;stroke-linejoin:round;stroke-miterlimit:2;">
    <g transform="matrix(0.945374,0,0,0.958146,20.2631,9.17397)">
        <g id="Icons">
            <rect x="-27.268" y="-15.006" width="551.105" height="543.758" style="fill:rgb(244,243,243);"/>
            <g transform="matrix(0.623176,0,0,0.614869,89.8253,100.202)">
                <path d="M408,96L400,96C400,78.328 385.672,64 368,64L352,64L352,40C352,35.584 348.416,32 344,32C322.8,32 305.456,48.496 304.088,69.352C285.12,78.32 272,97.624 272,120L272,144.84C272,153.136 265.632,159.904 257.376,160.736C184.712,168.064 128,229.408 128,304L128,400L112,400C103.176,400 96,392.824 96,384L96,256C96,229.528 74.472,208 48,208C39.168,208 32,215.168 32,224C32,232.832 39.168,240 48,240C56.824,240 64,247.176 64,256L64,384C64,410.472 85.528,432 112,432L288,432L288,400C288,382.328 302.328,368 320,368L320,320L365.256,274.744C377.256,262.744 384,246.464 384,229.488L384,160C401.672,160 416,145.672 416,128L416,104C416,99.584 412.416,96 408,96Z" style="fill:rgb(10,80,120);fill-rule:nonzero;"/>
                <g>
                    <path d="M472,480L40,480C35.584,480 32,476.416 32,472L32,440C32,435.584 35.584,432 40,432L472,432C476.416,432 480,435.584 480,440L480,472C480,476.416 476.416,480 472,480Z" style="fill:rgb(250,180,0);fill-rule:nonzero;"/>
                </g>
                <g>
                    <path d="M472,448L40,448C35.584,448 32,444.416 32,440C32,435.584 35.584,432 40,432L472,432C476.416,432 480,435.584 480,440C480,444.416 476.416,448 472,448Z" style="fill:rgb(220,150,0);fill-rule:nonzero;"/>
                </g>
                <g>
                    <path d="M312,369.008C314.56,368.352 317.24,368 320,368L320,304L312,304L312,369.008Z" style="fill:rgb(0,50,90);fill-rule:nonzero;"/>
                </g>
                <g>
                    <path d="M368,400L368,432C376.84,432 384,424.84 384,416C384,407.16 376.84,400 368,400Z" style="fill:rgb(10,80,120);fill-rule:nonzero;"/>
                </g>
                <g>
                    <path d="M384,160L384,229.488C384,246.464 377.256,262.744 365.256,274.744L352,288L352,208C352,199.16 344.84,192 336,192C318.328,192 304,177.672 304,160L384,160Z" style="fill:rgb(240,240,240);fill-rule:nonzero;"/>
                </g>
                <g>
                    <path d="M368,432L336,432C327.16,432 320,424.84 320,416L320,192L344,192C357.256,192 368,202.744 368,216L368,432Z" style="fill:rgb(10,80,120);fill-rule:nonzero;"/>
                </g>
                <g>
                    <path d="M336,432L368,432C376.84,432 384,424.84 384,416C384,407.16 376.84,400 368,400L320,400L320,416C320,424.84 327.16,432 336,432Z" style="fill:rgb(240,240,240);fill-rule:nonzero;"/>
                </g>
                <g>
                    <path d="M256,432L304,432C312.84,432 320,424.84 320,416C320,407.16 312.84,400 304,400L256,400L256,432Z" style="fill:rgb(240,240,240);fill-rule:nonzero;"/>
                </g>
                <g>
                    <circle cx="408" cy="104" r="8" style="fill:rgb(200,10,80);"/>
                </g>
            </g>
        </g>
    </g>
</svg>
