<svg width="800" height="800" xmlns="http://www.w3.org/2000/svg" data-name="Layer 1"><path fill="none" d="M-1-1h802v802H-1z"/><g><path stroke="null" stroke-width="1.5" fill="#f4f3f3" d="M1.5.453h797.67v797.67H1.5z"/><circle r="16.743" fill="#e75163" cy="220.856" cx="587.182"/><path fill="#b0b5ca" d="M439.042 288.971l-29.46 29.88.08.08 80.82 81.73 29.46-29.88-80.9-81.81zM332.582 397.421l80.65 81.56-2.69 2.73a57.521 57.521 0 01-81.8-80.89l3.59-3.64.25.24z"/><path fill="#6d7486" d="M573.202 504.561l-65.61 66.22-.12.12 41.21 41.7 65.74-66.33-41.22-41.71z"/><path fill="#e75163" d="M409.662 318.931l-.08-.08-77.25 78.33.25.24 80.65 81.56 77.25-78.32-80.82-81.73z"/><path fill="#6d7486" d="M261.875 191.261l-65.75 66.33 41.22 41.71 65.62-66.23.11-.11-41.2-41.7zM487.722 299.001h-.01l-19.22 19.61 21.27 21.585 18.6-18.942-20.64-22.253z"/><path fill="#b0b5ca" d="M508.362 321.441a79.589 79.589 0 01-20.64-22.14 80.218 80.218 0 017.98-95.53l53.27 53.88 57.72 58.37a77.932 77.932 0 01-98.33 5.42z"/><path fill="#6d7486" d="M369.452 322.191l-.09-.09-42.25 42.61 18.44 18.64.21.21 42.12-42.72-18.43-18.65zM468.872 422.741l-.09-.09-42.12 42.72 16.1 16.3.09.09 42.25-42.61-16.23-16.41z"/><path fill="#4689d3" d="M485.102 439.151l11.75-11.86 76.35 77.27-23.84 24.07-.17-.17-76.42-76.88 12.33-12.43z"/><path fill="#5fa8ed" d="M549.362 528.631l-17.59 17.74-.14-.14-76.43-76.9-.01-.01 17.58-17.74 76.42 76.88.17.17z"/><path fill="#4689d3" d="M531.772 546.371l-24.18 24.41-.12.12-76.37-77.28 11.75-11.86 12.34-12.44.01.01 76.43 76.9.14.14zM304.742 232.961l76.37 77.28-11.75 11.86-12.33 12.43-.01-.01-76.58-77.03 24.19-24.42.11-.11z"/><path fill="#5fa8ed" d="M357.032 334.531l-17.59 17.75-76.59-77.05 17.59-17.74 76.58 77.03.01.01z"/><path fill="#4689d3" d="M327.112 364.711l-11.75 11.86-76.35-77.27 23.84-24.07 76.59 77.05-12.33 12.43z"/><path fill="#9499aa" d="M348.742 420.821l3.485-3.533-19.645-19.867-.25-.24-3.59 3.64a57.577 57.577 0 0011.49 89.9 57.526 57.526 0 018.51-69.9z"/><path fill="#e75163" d="M352.332 417.181l.25.24-.245-.245-.005.005z"/><path fill="#c6475c" d="M409.662 318.931l-.08-.08-77.25 78.33.25.24 19.755 19.755 77.134-78.213-19.81-20.032z"/><path fill="#9499aa" d="M429.47 338.963l.112-.112 29.349-29.767-19.89-20.113-29.46 29.88.08.08 19.81 20.032zM515.602 223.894l-19.9-20.123a80.218 80.218 0 00-7.98 95.53 79.589 79.589 0 0020.64 22.14c.476.347.964.67 1.446 1a77.789 77.789 0 01-2.086-3.145 80.218 80.218 0 017.88-95.402z"/><g fill="#284268"><path d="M282.745 493.334l-8.608 8.61a6 6 0 108.486 8.484l8.608-8.609a6 6 0 00-8.486-8.485zM234.46 550.654a6 6 0 008.485 0l22.857-22.853a6 6 0 10-8.484-8.485L234.46 542.17a6 6 0 00-.001 8.485zM198.226 578.401l-12.357 12.36a6 6 0 008.485 8.485l12.356-12.357a6 6 0 10-8.484-8.485v-.003zM217.244 559.386l-2.18 2.18a6 6 0 108.483 8.486l2.18-2.178a6 6 0 00-8.483-8.488zM267.209 462.476l-29.868 29.868a6 6 0 108.484 8.485l29.868-29.868a6 6 0 10-8.484-8.485zM229.002 509.717a6 6 0 00-8.485 0l-7.985 7.984a6 6 0 008.485 8.486l7.985-7.986a6 6 0 000-8.484zM189.578 555.141a5.986 5.986 0 004.243-1.757l9.98-9.983a6 6 0 00-8.485-8.486l-9.981 9.986a6 6 0 004.243 10.243v-.003zM322.09 517.357a6 6 0 10-8.484-8.485l-11.448 11.446a6 6 0 108.485 8.485l11.447-11.446zM282.922 540.101l-16.92 16.925a6 6 0 008.486 8.486l16.923-16.924a6 6 0 00-8.486-8.485l-.003-.002zM257.266 574.245a6 6 0 00-8.485 0l-17.05 17.05a6 6 0 008.485 8.485l17.05-17.05a6 6 0 000-8.485zM331.727 537.146l-20.26 20.255a6 6 0 108.485 8.485l20.259-20.259a6 6 0 00-8.484-8.485v.004zM294.643 574.778l-12.517 12.517a6 6 0 008.486 8.486l12.517-12.517a6 6 0 00-8.486-8.486zM264.908 604.514l-7.984 7.984a6 6 0 108.484 8.485l7.985-7.982a6 6 0 10-8.485-8.485v-.002zM410.284 349.522l-4.452 4.451a6 6 0 108.484 8.486l4.453-4.45a6 6 0 10-8.485-8.487zM392.402 367.408l-31.5 31.493a6 6 0 008.485 8.486l31.494-31.494a6 6 0 00-8.484-8.486l.005.001z"/><path d="M501.12 422.928a6.139 6.139 0 00-4.262-1.927 6.147 6.147 0 00-4.264 1.92l-7.487 7.626-7.862-7.926 46.967-47.627a6 6 0 00-.006-8.432l-26-26.3 10.92-11.06a83.8 83.8 0 00101.6-8.748 6 6 0 00.23-8.658l-53.523-54.127 17.6-17.6a22.733 22.733 0 10-8.1-8.867l-17.931 17.937-49.033-49.583a6 6 0 00-8.751.232 86.144 86.144 0 00-11 98.554l-11.73 11.877-25.182-25.452a5.982 5.982 0 00-4.266-1.766 5.983 5.983 0 00-4.268 1.771l-46.88 47.535-10.09-10.206 7.572-7.64a6 6 0 00.006-8.442L267.802 186.914a6.124 6.124 0 00-4.26-1.913h-.005a6.137 6.137 0 00-4.262 1.906l-65.748 66.394a6.04 6.04 0 000 8.474L311.1 380.985a6.235 6.235 0 004.257 2.016h.005a6.224 6.224 0 004.262-1.99l7.487-7.662 10.182 10.26-12.818 13a63.739 63.739 0 000 89.326 63.524 63.524 0 0090.343-.009l11.843-12.009 7.754 7.842-7.571 7.64a6 6 0 00-.006 8.441L544.41 617.02a6.2 6.2 0 004.263 1.981 6.21 6.21 0 004.262-1.977l65.748-66.43a6.15 6.15 0 000-8.564L501.12 422.928zm78.468-209.667a10.741 10.741 0 0115.189 15.19 10.74 10.74 0 11-15.188-15.19h-.001zM496.847 435.82l67.917 68.73-15.416 15.56-68.122-68.53 15.62-15.76zm44.055 92.815l-9.134 9.22-68.127-68.535 9.136-9.218 68.125 68.533zM496.13 212.741l101.71 102.86a71.93 71.93 0 01-94.957-6.746 74.105 74.105 0 01-6.753-96.114zm-9.23 95.914a86.018 86.018 0 007.45 8.634 85.612 85.612 0 005.052 4.681l-9.64 9.762-12.834-12.979 9.972-10.098zm-114.232 1.58l-15.646 15.785-68.13-68.537 15.844-15.992 67.932 68.743zm-24.095 24.307l-9.135 9.217-68.125-68.533 9.133-9.219 68.127 68.535zm-142.343-76.94l57.3-57.808 32.77 33.161-57.285 57.82-32.785-33.174zm109.138 110.44l-67.918-68.73 15.417-15.56 68.122 68.53-15.621 15.76zm20.19-3.31l33.793-34.1 10.107 10.22-33.716 34.186-10.183-10.306zm34.085 128.054a51.154 51.154 0 01-36.636-15.3 51.7 51.7 0 01-.65-71.765l72.408 73.223a51.12 51.12 0 01-35.122 13.842zm43.587-22.344l-72.46-73.278 68.81-69.778 5.612 5.675a6 6 0 008.533-8.438l-5.717-5.782 21.037-21.332 72.456 73.277-21.036 21.332-38.614-39.052a6 6 0 00-8.51-.024 6 6 0 00-.024 8.462l38.723 39.16-68.81 69.778zm55.57-39.259l7.857 7.95-33.793 34.1-7.774-7.86 33.71-34.19zm-29.252 62.443l15.646-15.785 68.129 68.537-15.843 15.992-67.932-68.744zM548.685 604.07l-32.771-33.163 57.288-57.82 32.785 33.177-57.302 57.806z"/></g></g></svg>
